{
  "accessors": [
    {
      "bufferView": 2,
      "componentType": 5126,
      "count": 550,
      "max": [
        0.4842509925365448,
        1.0,
        0.5258259773254395
      ],
      "min": [
        -0.4842509925365448,
        -1.0,
        -0.5258259773254395
      ],
      "type": "VEC3"
    },
    {
      "bufferView": 2,
      "byteOffset": 6600,
      "componentType": 5126,
      "count": 550,
      "max": [
        0.999642014503479,
        0.993412971496582,
        0.995273232460022
      ],
      "min": [
        -0.9993917346000671,
        -0.9997159838676453,
        -0.9991555213928223
      ],
      "type": "VEC3"
    },
    {
      "bufferView": 3,
      "componentType": 5126,
      "count": 550,
      "max": [
        0.9869309067726135,
        0.9989727139472961,
        0.9943608045578003,
        1.0
      ],
      "min": [
        -0.9880970120429993,
        -0.9992430210113525,
        -0.9847298264503479,
        -1.0
      ],
      "type": "VEC4"
    },
    {
      "bufferView": 1,
      "componentType": 5126,
      "count": 550,
      "max": [
        0.9901959896087646,
        0.9637439846992493
      ],
      "min": [
        0.009803970344364643,
        0.009542020037770271
      ],
      "type": "VEC2"
    },
    {
      "bufferView": 0,
      "componentType": 5125,
      "count": 2946,
      "type": "SCALAR"
    }
  ],
  "asset": {
    "extras": {
      "author": "MartynaGrek (https://sketchfab.com/MartynaGrek)",
      "license": "CC-BY-4.0 (http://creativecommons.org/licenses/by/4.0/)",
      "source": "https://sketchfab.com/3d-models/desert-rocks-51676e3e24a640018b4db150cd09cb5e",
      "title": "Desert Rocks"
    },
    "generator": "Sketchfab-12.66.0",
    "version": "2.0"
  },
  "bufferViews": [
    {
      "buffer": 0,
      "byteLength": 11784,
      "name": "floatBufferViews",
      "target": 34963
    },
    {
      "buffer": 0,
      "byteLength": 4400,
      "byteOffset": 11784,
      "byteStride": 8,
      "name": "floatBufferViews",
      "target": 34962
    },
    {
      "buffer": 0,
      "byteLength": 13200,
      "byteOffset": 16184,
      "byteStride": 12,
      "name": "floatBufferViews",
      "target": 34962
    },
    {
      "buffer": 0,
      "byteLength": 8800,
      "byteOffset": 29384,
      "byteStride": 16,
      "name": "floatBufferViews",
      "target": 34962
    }
  ],
  "buffers": [
    {
      "byteLength": 38184,
      "uri": "scene.bin"
    }
  ],
  "images": [
    {
      "uri": "textures/TCE_Rocks_v03_Desert_Mat_baseColor.jpeg"
    },
    {
      "uri": "textures/TCE_Rocks_v03_Desert_Mat_metallicRoughness.png"
    },
    {
      "uri": "textures/TCE_Rocks_v03_Desert_Mat_normal.png"
    }
  ],
  "materials": [
    {
      "doubleSided": true,
      "name": "TCE_Rocks_v03_Desert_Mat",
      "normalTexture": {
        "index": 2
      },
      "occlusionTexture": {
        "index": 1
      },
      "pbrMetallicRoughness": {
        "baseColorTexture": {
          "index": 0
        },
        "metallicRoughnessTexture": {
          "index": 1
        }
      }
    }
  ],
  "meshes": [
    {
      "name": "defaultMaterial",
      "primitives": [
        {
          "attributes": {
            "NORMAL": 1,
            "POSITION": 0,
            "TANGENT": 2,
            "TEXCOORD_0": 3
          },
          "indices": 4,
          "material": 0,
          "mode": 4
        }
      ]
    }
  ],
  "nodes": [
    {
      "children": [
        1
      ],
      "matrix": [
        1.0,
        0.0,
        0.0,
        0.0,
        0.0,
        2.220446049250313e-16,
        -1.0,
        0.0,
        0.0,
        1.0,
        2.220446049250313e-16,
        0.0,
        0.0,
        0.0,
        0.0,
        1.0
      ],
      "name": "Sketchfab_model"
    },
    {
      "children": [
        2
      ],
      "matrix": [
        1.0,
        0.0,
        0.0,
        0.0,
        0.0,
        -4.371139006309477e-08,
        0.999999999999999,
        0.0,
        0.0,
        -0.999999999999999,
        -4.371139006309477e-08,
        0.0,
        0.0,
        0.0,
        0.0,
        1.0
      ],
      "name": "Collada visual scene group"
    },
    {
      "children": [
        3
      ],
      "name": "TCE_Rocks_v03_LP:Group18554"
    },
    {
      "mesh": 0,
      "name": "defaultMaterial"
    }
  ],
  "samplers": [
    {
      "magFilter": 9729,
      "minFilter": 9987,
      "wrapS": 10497,
      "wrapT": 10497
    }
  ],
  "scene": 0,
  "scenes": [
    {
      "name": "Sketchfab_Scene",
      "nodes": [
        0
      ]
    }
  ],
  "textures": [
    {
      "sampler": 0,
      "source": 0
    },
    {
      "sampler": 0,
      "source": 1
    },
    {
      "sampler": 0,
      "source": 2
    }
  ]
}
